<?xml version="1.0" encoding="iso-8859-1"?>
<!-- Uploaded to: SVG Repo, www.svgrepo.com, Generator: SVG Repo Mixer Tools -->
<svg version="1.1" id="Layer_1" xmlns="http://www.w3.org/2000/svg" xmlns:xlink="http://www.w3.org/1999/xlink" 
	 viewBox="0 0 512 512" xml:space="preserve">
<rect y="109.714" style="fill:#BEDDF5;" width="475.429" height="292.571"/>
<rect x="237.714" y="109.714" style="fill:#93C7EF;" width="237.714" height="292.571"/>
<rect y="24.381" style="fill:#0052B4;" width="475.429" height="97.524"/>
<g>
	<rect x="91.429" y="213.333" style="fill:#FFFFFF;" width="121.905" height="36.571"/>
	<rect x="91.429" y="286.476" style="fill:#FFFFFF;" width="121.905" height="36.571"/>
	<rect x="262.095" y="213.333" style="fill:#FFFFFF;" width="121.905" height="36.571"/>
	<rect x="262.095" y="286.476" style="fill:#FFFFFF;" width="146.286" height="36.571"/>
</g>
<path style="fill:#FFC170;" d="M408.381,280.381c-57.136,0-103.619,46.484-103.619,103.619s46.484,103.619,103.619,103.619
	S512,441.136,512,384S465.517,280.381,408.381,280.381z"/>
<path style="fill:#FF9811;" d="M408.381,487.619C465.517,487.619,512,441.136,512,384s-46.483-103.619-103.619-103.619"/>
<polygon style="fill:#FFFFFF;" points="451.048,365.714 426.667,365.714 426.667,341.333 390.095,341.333 390.095,365.714 
	365.714,365.714 365.714,402.286 390.095,402.286 390.095,426.667 426.667,426.667 426.667,402.286 451.048,402.286 "/>
<rect x="237.714" y="24.381" style="fill:#003778;" width="237.714" height="97.524"/>
<circle style="fill:#FFDA44;" cx="390.095" cy="73.143" r="18.286"/>
<circle style="fill:#FF5023;" cx="329.143" cy="73.143" r="18.286"/>
<rect x="67.048" y="54.857" style="fill:#93C7EF;" width="170.667" height="36.571"/>
<g>
	<rect x="390.095" y="341.333" style="fill:#FFFFFF;" width="36.571" height="85.333"/>
	<rect x="365.714" y="365.714" style="fill:#FFFFFF;" width="85.333" height="36.571"/>
</g>
</svg>