<?xml version="1.0" encoding="iso-8859-1"?>
<!-- Uploaded to: SVG Repo, www.svgrepo.com, Generator: SVG Repo Mixer Tools -->
<svg version="1.1" id="Layer_1" xmlns="http://www.w3.org/2000/svg" xmlns:xlink="http://www.w3.org/1999/xlink" 
	 viewBox="30 20 480 512" xml:space="preserve">
<polygon style="fill:#00B4D7;" points="503.883,473.464 174.825,473.464 174.825,376.365 406.784,376.365 406.784,225.321 
	174.825,225.321 174.825,306.238 12.993,176.772 174.825,47.307 174.825,128.223 503.883,128.223 "/>
<polygon style="fill:#0093C4;" points="174.825,424.915 455.333,424.915 455.333,176.772 12.993,176.772 174.825,47.307 
	174.825,128.223 503.883,128.223 503.883,473.464 174.825,473.464 "/>
<path d="M512,481.581H166.709V368.248h231.959v-134.81H182.942v89.687L0,176.772L182.942,30.419v89.687H512L512,481.581L512,481.581
	z M182.942,465.347h312.824V136.339H166.709V64.195L25.987,176.772L166.709,289.35v-72.145h248.192v167.277H182.942V465.347z"/>
<g>
	<polygon style="fill:#FFFFFF;" points="474.239,290.054 458.005,290.054 458.005,174.1 363.629,174.1 363.629,157.867 
		474.239,157.867 	"/>
	<rect x="458.002" y="311.63" style="fill:#FFFFFF;" width="16.234" height="32.366"/>
</g>
</svg>