<?xml version="1.0" encoding="iso-8859-1"?>
<!-- Uploaded to: SVG Repo, www.svgrepo.com, Generator: SVG Repo Mixer Tools -->
<svg version="1.1" id="Layer_1" xmlns="http://www.w3.org/2000/svg" xmlns:xlink="http://www.w3.org/1999/xlink" 
	 viewBox="0 0 512 512" xml:space="preserve">
<polygon style="fill:#00B4D7;" points="221.331,48.871 288.146,115.687 207.968,195.866 501.957,195.866 501.957,316.134 
	207.968,316.134 288.146,396.313 221.331,463.129 14.202,256.001 "/>
<polygon style="fill:#0093C4;" points="221.331,463.129 288.146,396.313 207.968,316.134 501.957,316.134 501.957,256.001 
	14.202,256.001 "/>
<path d="M221.331,477.33L0,256.001L221.331,34.67l81.018,81.017l-70.136,70.136H512v140.353H232.213l70.136,70.136L221.331,477.33z
	 M28.404,256.001l192.926,192.926l52.614-52.613l-90.221-90.221h308.191V205.911H183.723l90.221-90.221l-52.614-52.613
	L28.404,256.001z"/>
<rect x="68.781" y="327.804" transform="matrix(-0.7071 -0.7071 0.7071 -0.7071 27.7296 687.1793)" style="fill:#FFFFFF;" width="174.807" height="20.085"/>
</svg>